<svg xmlns="http://www.w3.org/2000/svg" width="40" height="40" viewBox="0 0 40 40">
    <rect width="40" height="40" rx="10" fill="#007fb1"/>
    
    <defs>
        <linearGradient id="iconGradient" x1="0%" y1="0%" x2="100%" y2="100%">
            <stop offset="0%" style="stop-color:#007fb1;stop-opacity:1" />
            <stop offset="100%" style="stop-color:#48c732;stop-opacity:1" />
        </linearGradient>
    </defs>

    <g transform="translate(6, 6) scale(0.9)">
        <path fill="white" d="M26.2,16.5c0.5,0,1,0.4,1,1v8.3c0,2.1-1.7,3.8-3.8,3.8H5.2c-2.1,0-3.8-1.7-3.8-3.8V7.5C1.4,5.4,3.1,3.7,5.2,3.7h8.3c0.5,0,1,0.4,1,1s-0.4,1-1,1H5.2C4.3,5.7,3.4,6.5,3.4,7.5v18.3c0,1,0.8,1.8,1.8,1.8h18.3c1,0,1.8-0.8,1.8-1.8v-8.3C25.2,16.9,25.7,16.5,26.2,16.5z"/>
        
        <path fill="white" d="M30.6,1.4c-0.4-0.4-1.1-0.4-1.5,0l-5.7,5.7c-0.1-0.1-0.3-0.1-0.4-0.1c-1.8,0-3.3,1.5-3.3,3.3s1.5,3.3,3.3,3.3s3.3-1.5,3.3-3.3c0-0.1,0-0.3-0.1-0.4l5.7-5.7C31,3.7,31,3.1,30.6,2.7L30.6,1.4z M23,11.3c-0.7,0-1.3-0.6-1.3-1.3s0.6-1.3,1.3-1.3s1.3,0.6,1.3,1.3S23.7,11.3,23,11.3z"/>
        
        <path fill="white" d="M11.5,21.5h1.5l3.2-8.5h-1.6l-0.7,2h-3.3l-0.7-2h-1.6L11.5,21.5z M11.2,16.4h2.2l-1.1,3.2L11.2,16.4z"/>
    </g>
</svg>